<svg width="120" height="120" viewBox="0 0 120 120" fill="none" xmlns="http://www.w3.org/2000/svg">
<path d="M60 23C80.4345 23 97 39.5655 97 60C97 80.4345 80.4345 97 60 97C39.5655 97 23 80.4345 23 60C23 39.5655 39.5655 23 60 23Z" stroke="black" stroke-width="1.5"/>
<path d="M60 27C78.2254 27 93 41.7746 93 60C93 78.2254 78.2254 93 60 93C41.7746 93 27 78.2254 27 60C27 41.7746 41.7746 27 60 27Z" stroke="black" stroke-width="1.5"/>
<path d="M35.5 61.5V49C35.5 47.8954 36.3954 47 37.5 47H82.5C83.6046 47 84.5 47.8954 84.5 49V61.5C84.5 62.6046 83.6046 63.5 82.5 63.5H37.5C36.3954 63.5 35.5 62.6046 35.5 61.5Z" stroke="black" stroke-width="1.5"/>
<path d="M38 60.9V49.6C38 49.5448 38.0448 49.5 38.1 49.5H81.9C81.9552 49.5 82 49.5448 82 49.6V60.9C82 60.9552 81.9552 61 81.9 61H38.1C38.0448 61 38 60.9552 38 60.9Z" fill="black" stroke="black" stroke-width="1.5"/>
<path d="M53.5135 67H44C41.7909 67 40 68.7909 40 71V76C40 78.2091 41.7909 80 44 80H53.5135M53.5135 67V80M53.5135 67H66.7568M53.5135 80H66.7568M66.7568 67H76C78.2091 67 80 68.7909 80 71V76C80 78.2091 78.2091 80 76 80H66.7568M66.7568 67V80" stroke="black" stroke-width="1.5"/>
</svg>
