<svg width="72" height="50" viewBox="0 0 72 50" fill="none" xmlns="http://www.w3.org/2000/svg">
<g clip-path="url(#clip0_7_2)">
<path d="M69.9417 7.82359C69.1182 4.76474 66.7064 2.35296 63.6476 1.52942C58.0593 0 35.7062 0 35.7062 0C35.7062 0 13.353 0 7.76477 1.4706C4.76474 2.29414 2.29414 4.76474 1.4706 7.82359C0 13.4119 0 25.0002 0 25.0002C0 25.0002 0 36.6474 1.4706 42.1768C2.29414 45.2357 4.70592 47.6474 7.76477 48.471C13.4119 50.0004 35.7062 50.0004 35.7062 50.0004C35.7062 50.0004 58.0593 50.0004 63.6476 48.5298C66.7064 47.7063 69.1182 45.2945 69.9417 42.2356C71.4123 36.6474 71.4123 25.059 71.4123 25.059C71.4123 25.059 71.4712 13.4119 69.9417 7.82359V7.82359Z" fill="black"/>
<path d="M47.1769 25.0002L28.5885 14.2942V35.7062L47.1769 25.0002Z" fill="white"/>
</g>
<defs>
<clipPath id="clip0_7_2">
<rect width="71.4121" height="50" fill="white"/>
</clipPath>
</defs>
</svg>
